<svg id="Layer_1" data-name="Layer 1" xmlns="http://www.w3.org/2000/svg" viewBox="0 0 50 50"><title>Vector Smart Object3</title><path d="M7.63,25.87V23.59a4,4,0,0,1,2.91-3.81,4,4,0,0,0-5,3.81v2.28a3.94,3.94,0,0,0,5,3.81,3.94,3.94,0,0,1-2.91-3.81Zm0,0" fill="#bb141a" opacity="0.1"/><path d="M11.53,34.56A5,5,0,0,0,15,33.31a4.58,4.58,0,0,0-1.57-.5,5,5,0,0,1-2.79,1.65,4.59,4.59,0,0,0,.9.1Zm0,0" fill="#bb141a" opacity="0.1"/><path d="M5,34.13a5,5,0,0,1,1.2-.88,3.81,3.81,0,0,1-.44-.46,4.53,4.53,0,0,0-4.11,4.5v4.52H3.72V37.29A4.51,4.51,0,0,1,5,34.13Zm0,0" fill="#bb141a" opacity="0.1"/><path d="M22.26,23.52V20.91a4.6,4.6,0,0,1,3.56-4.48,4.6,4.6,0,0,0-5.63,4.48v2.61A4.6,4.6,0,0,0,25.82,28a4.59,4.59,0,0,1-3.56-4.47Zm0,0" fill="#bb141a" opacity="0.1"/><path d="M26.81,33.36a5.66,5.66,0,0,0,4-1.55,5.39,5.39,0,0,0-1.62-.47,5.62,5.62,0,0,1-3.31,1.92,5.39,5.39,0,0,0,.89.1Zm0,0" fill="#bb141a" opacity="0.1"/><path d="M19.29,32.89a5.2,5.2,0,0,1,1.64-1.14q-.21-.21-.39-.42a5.24,5.24,0,0,0-4.81,5.23v7.86h2.06V36.56a5.21,5.21,0,0,1,1.5-3.67Zm0,0" fill="#bb141a" opacity="0.1"/><path d="M38.17,25.87V23.59a4,4,0,0,1,2.91-3.81,4,4,0,0,0-5,3.81v2.28a3.94,3.94,0,0,0,5,3.81,4,4,0,0,1-2.91-3.81Zm0,0" fill="#bb141a" opacity="0.1"/><path d="M42.07,34.56a5,5,0,0,0,3.46-1.25,4.46,4.46,0,0,0-1.56-.5,5.1,5.1,0,0,1-2.8,1.65,4.59,4.59,0,0,0,.9.1Zm0,0" fill="#bb141a" opacity="0.1"/><path d="M36.37,33.46l.37-.21c-.15-.14-.3-.3-.44-.46a4.41,4.41,0,0,0-2,.67,6.47,6.47,0,0,1,.79,3.1v5.25h2.06V36.56a6.47,6.47,0,0,0-.79-3.1Zm0,0" fill="#bb141a" opacity="0.1"/><path d="M30.63,23.52V20.91a5.84,5.84,0,0,0-11.68,0v2.61a5.84,5.84,0,0,0,11.68,0Zm-10.44,0V20.91a4.6,4.6,0,0,1,9.2,0v2.61a4.6,4.6,0,0,1-9.2,0Zm0,0" fill="#636466"/><path d="M14.49,45a.62.62,0,0,0,.62.62H34.48A.62.62,0,0,0,35.1,45v-2H48.53a.62.62,0,0,0,.62-.62V37.29a5.77,5.77,0,0,0-5.4-5.75c-.33,0-.49.18-.67.39a3.8,3.8,0,0,1-6-.14.62.62,0,0,0-.51-.26,5.78,5.78,0,0,0-3,.91A6.44,6.44,0,0,0,29,30.08c-.33,0-.48.17-.68.41a4.42,4.42,0,0,1-7-.17.65.65,0,0,0-.52-.25,6.47,6.47,0,0,0-4.48,2l-.37.42a5.75,5.75,0,0,0-2.75-.9c-.33,0-.49.18-.67.39a3.8,3.8,0,0,1-6-.14A.62.62,0,0,0,6,31.53,5.77,5.77,0,0,0,.41,37.29v5.14a.62.62,0,0,0,.62.62H14.49ZM36.3,32.79a5,5,0,0,0,7.67,0,4.52,4.52,0,0,1,3.94,4.48v4.52H35.1V36.56a6.47,6.47,0,0,0-.79-3.1,4.41,4.41,0,0,1,2-.67ZM20.54,31.33a5.67,5.67,0,0,0,8.69,0,5.27,5.27,0,0,1,4.63,5.22v7.86H15.73V36.56a5.24,5.24,0,0,1,4.81-5.23ZM1.65,41.81V37.29a4.53,4.53,0,0,1,4.11-4.5,5,5,0,0,0,7.66,0,4.52,4.52,0,0,1,1.85.66,6.31,6.31,0,0,0-.78,3.09v5.25Zm0,0" fill="#636466"/><path d="M45.24,25.87V23.59a5.19,5.19,0,1,0-10.37,0v2.28a5.19,5.19,0,1,0,10.37,0Zm-9.14,0V23.59a3.95,3.95,0,0,1,7.9,0v2.28a4,4,0,0,1-7.9,0Zm0,0" fill="#636466"/><path d="M14.7,25.87V23.59a5.19,5.19,0,1,0-10.38,0v2.28a5.19,5.19,0,0,0,10.38,0Zm-9.14,0V23.59a4,4,0,0,1,7.9,0v2.28a3.95,3.95,0,0,1-7.9,0Zm0,0" fill="#636466"/><path d="M47.61,5.38H31.39A2.39,2.39,0,0,0,29,7.76v6.46a2.39,2.39,0,0,0,2.39,2.39h.72a4,4,0,0,0,2.32,3.21.63.63,0,0,0,.38.06.64.64,0,0,0,.53-.49,3.56,3.56,0,0,0,.08-.57c.13-1.43.44-2.21,1.67-2.21H47.61A2.39,2.39,0,0,0,50,14.22V7.76a2.39,2.39,0,0,0-2.39-2.38Zm1.15,8.84a1.15,1.15,0,0,1-1.15,1.15H37.09c-2.22,0-2.7,1.77-2.85,2.86a3.35,3.35,0,0,1-.92-1.86,1.21,1.21,0,0,0-1.21-1h-.72a1.15,1.15,0,0,1-1.15-1.15V7.77a1.14,1.14,0,0,1,1.15-1.15H47.61a1.14,1.14,0,0,1,1.15,1.15Zm0,0" fill="#bb141a"/><path d="M2.39,16.61H13a4,4,0,0,0,2.32,3.21.63.63,0,0,0,.38.06.64.64,0,0,0,.53-.49,2.59,2.59,0,0,0,0-.85c0-.55-.09-1.31.24-1.66a1.17,1.17,0,0,1,.88-.27h1.22A2.39,2.39,0,0,0,21,14.22V6.73a2.4,2.4,0,0,0-2.39-2.39H2.39A2.4,2.4,0,0,0,0,6.73v7.49a2.39,2.39,0,0,0,2.39,2.39ZM1.24,6.73A1.15,1.15,0,0,1,2.39,5.58H18.61a1.15,1.15,0,0,1,1.15,1.15v7.49a1.15,1.15,0,0,1-1.15,1.15H17.39a2.32,2.32,0,0,0-1.78.66,2.81,2.81,0,0,0-.6,2,3.37,3.37,0,0,1-.77-1.71,1.23,1.23,0,0,0-1.22-1H2.39a1.15,1.15,0,0,1-1.15-1.15Zm0,0" fill="#bb141a"/></svg>