<?xml version="1.0" encoding="utf-8"?>
<!-- Generator: Adobe Illustrator 23.0.1, SVG Export Plug-In . SVG Version: 6.00 Build 0)  -->
<svg version="1.1" id="Layer_1" xmlns="http://www.w3.org/2000/svg" xmlns:xlink="http://www.w3.org/1999/xlink" x="0px" y="0px"
	 viewBox="0 0 1287.6 337.4" style="enable-background:new 0 0 1287.6 337.4;" xml:space="preserve">
<style type="text/css">
	.st0{fill:#626366;}
	.st1{fill:#B9131A;}
</style>
<title>Arabic Logo</title>
<g>
	<g>
		<g>
			<path class="st0" d="M236.8,233.7L3.1,0h87.6l233.7,233.7H236.8z M3.1,233.7V29.2l58.4,58.4v146.1L3.1,233.7L3.1,233.7z
				 M324.4,204.5L266,146.1V0h58.4V204.5z"/>
			<path class="st0" d="M351.8,233.7V58.4L410.2,0h233.7v58.4H410.2v116.9h233.7l-58.4,58.4L351.8,233.7L351.8,233.7z M439.4,146.1
				V87.6h116.9V146H439.4V146.1z"/>
			<path class="st1" d="M657.4,233.7L891.1,0h87.6L745.1,233.7H657.4z M759.7,102.2L657.4,0H745l58.4,58.4L759.7,102.2z
				 M891.1,233.7l-58.4-58.4l43.8-43.8l102.2,102.2L891.1,233.7L891.1,233.7z"/>
			<path class="st0" d="M995.5,58.4V0h292.1l-58.4,58.4H995.5z M1112.3,233.7V87.6h58.4v146.1L1112.3,233.7L1112.3,233.7z"/>
		</g>
	</g>
	<g>
		<path class="st0" d="M28.2,335.5c-3.9,0-7.5-0.7-11-2.1c-3.4-1.4-6.4-3.3-9-5.8c-2.5-2.5-4.6-5.4-6-8.8c-1.5-3.4-2.2-7-2.2-11
			c0-3.9,0.7-7.5,2.2-10.9s3.5-6.3,6-8.9c2.5-2.5,5.5-4.5,8.9-6s7-2.2,10.9-2.2c4.9,0,9.4,1,13.4,3.1s7.2,5,9.8,8.8l-4.2,3
			c-2.1-3.1-4.7-5.6-7.7-7.4s-6.8-2.7-11.2-2.7c-3.2,0-6.2,0.6-8.9,1.8c-2.7,1.2-5.1,2.9-7.1,5s-3.5,4.6-4.6,7.4s-1.7,5.8-1.7,8.9
			s0.5,6.1,1.6,8.8c1.1,2.8,2.6,5.2,4.6,7.3c2,2.1,4.3,3.7,7,5c2.7,1.2,5.7,1.8,9,1.8c4.5,0,8.3-0.6,11.3-1.9s5.2-2.8,6.4-4.6v-11.5
			H31.4v-4.8h19.9v17.8c-0.7,1.2-1.8,2.4-3.2,3.6s-3.1,2.2-5.1,3.2c-2,0.9-4.2,1.6-6.7,2.2C33.9,335.3,31.1,335.5,28.2,335.5z"/>
		<path class="st0" d="M86.5,280.7h33.3v4.8H92.2v19.1h26.3v4.9H92.2V330h27.7v4.8H86.5V280.7z"/>
		<path class="st0" d="M153.2,278.9l39.9,43.5v-41.7h5.6v56.1l-39.9-43.5v41.6h-5.6L153.2,278.9L153.2,278.9z"/>
		<path class="st0" d="M233.6,280.7h33.3v4.8h-27.7v19.1h26.3v4.9h-26.3V330h27.7v4.8h-33.3L233.6,280.7L233.6,280.7z"/>
		<path class="st0" d="M300.2,280.7h19.3c1.7,0,3.4,0.1,5.1,0.4c1.6,0.3,3.1,0.7,4.5,1.4c2.6,1.3,4.7,3.2,6.3,5.7
			c1.6,2.5,2.4,5.5,2.4,9c0,2.5-0.4,4.7-1.2,6.7c-0.8,2-1.8,3.7-3,5.2c-1.2,1.4-2.6,2.6-4.1,3.4s-3.1,1.3-4.6,1.4
			c2.3,3.5,4.6,7,6.8,10.5c2.2,3.5,4.4,6.9,6.7,10.4h-6.7c-2.2-3.4-4.3-6.8-6.5-10.2c-2.2-3.4-4.3-6.8-6.5-10.3H306v20.5h-5.6v-54.1
			H300.2z M319.4,309.5c1.1,0,2.2,0,3.2-0.1s2-0.3,3.2-0.6c0.9-0.3,1.8-0.8,2.6-1.5c0.8-0.7,1.5-1.6,2-2.6c0.6-1,1-2.1,1.3-3.4
			s0.5-2.6,0.5-3.9c0-2.5-0.5-4.7-1.4-6.4c-1-1.7-2.3-3.1-3.9-4c-1-0.5-2.1-0.9-3.3-1.1c-1.2-0.2-2.5-0.3-3.9-0.3H306v24h13.4V309.5
			z"/>
		<path class="st0" d="M390.7,278.1l24.2,56.7h-6.2l-6.2-14.6h-23.8l-6.2,14.6h-6.2L390.7,278.1z M400.5,315.4l-9.8-23.6l-9.8,23.6
			H400.5z"/>
		<path class="st0" d="M456.7,285.5h-14.4v-4.8h34.5v4.8h-14.4v49.3h-5.6v-49.3H456.7z"/>
		<path class="st0" d="M507.8,280.7h5.6v54.1h-5.6L507.8,280.7L507.8,280.7z"/>
		<path class="st0" d="M574.8,335.5c-3.9,0-7.6-0.7-11-2.1s-6.3-3.3-8.9-5.8c-2.5-2.5-4.5-5.4-6-8.8s-2.2-7-2.2-11
			c0-3.9,0.7-7.5,2.2-10.9s3.5-6.3,6-8.9c2.5-2.5,5.5-4.5,8.9-6s7-2.2,10.8-2.2c4,0,7.7,0.7,11.1,2.1c3.4,1.4,6.4,3.4,8.9,5.9
			s4.5,5.4,5.9,8.8s2.1,7.1,2.1,11c0,4-0.7,7.7-2.2,11.1c-1.4,3.4-3.4,6.3-5.9,8.8s-5.4,4.4-8.8,5.8
			C582.4,334.9,578.7,335.5,574.8,335.5z M574.7,330.7c3.4,0,6.4-0.6,9.2-1.8c2.7-1.2,5.1-2.8,7-4.9c2-2.1,3.5-4.5,4.5-7.3
			c1.1-2.8,1.6-5.7,1.6-8.9c0-3.3-0.5-6.3-1.6-9.1c-1.1-2.8-2.6-5.3-4.5-7.3c-1.9-2.1-4.3-3.7-7-4.9c-2.7-1.2-5.8-1.8-9.1-1.8
			s-6.3,0.6-9,1.9s-5.1,2.9-7,5c-2,2.1-3.5,4.6-4.6,7.4s-1.7,5.7-1.7,8.8c0,3.1,0.6,6.1,1.7,8.8c1.1,2.8,2.6,5.2,4.6,7.3
			c2,2.1,4.3,3.7,7,5C568.4,330.1,571.4,330.7,574.7,330.7z"/>
		<path class="st0" d="M636,278.9l39.9,43.5v-41.7h5.6v56.1l-39.9-43.5v41.6H636V278.9z"/>
		<path class="st0" d="M777.6,335.5c-3.5,0-6.8-0.7-9.8-2c-3.1-1.3-5.7-3.4-8-6.2l4.1-3.4c1.6,2.1,3.6,3.7,6,5s5.1,1.9,7.9,1.9
			c1.7,0,3.3-0.3,4.7-0.9s2.6-1.3,3.6-2.3s1.8-2.1,2.3-3.4s0.8-2.7,0.8-4.2c0-1.4-0.2-2.6-0.7-3.6s-1.2-1.9-2-2.7
			c-0.8-0.8-1.8-1.5-2.9-2c-1.1-0.6-2.3-1.1-3.5-1.6l-6.4-2.5c-1.5-0.6-2.9-1.3-4.3-2c-1.4-0.8-2.6-1.7-3.6-2.8
			c-1-1.1-1.9-2.4-2.5-3.9s-0.9-3.2-0.9-5.2s0.4-3.8,1.2-5.5s1.9-3.2,3.3-4.4c1.4-1.2,3.1-2.2,5-2.9c1.9-0.7,4-1.1,6.2-1.1
			c3.2,0,5.9,0.5,8,1.4s4.2,2.2,6,3.8l-3.4,3.9c-1.4-1.4-3-2.4-4.7-3.2c-1.7-0.7-3.7-1.1-6-1.1c-1.4,0-2.8,0.2-4,0.7
			c-1.2,0.4-2.3,1.1-3.2,1.9s-1.6,1.8-2.2,2.9c-0.5,1.1-0.8,2.3-0.8,3.5s0.2,2.3,0.7,3.2c0.4,0.9,1,1.7,1.8,2.4
			c0.7,0.7,1.6,1.3,2.6,1.9c1,0.5,2.1,1,3.2,1.5l6.2,2.5c1.6,0.6,3.1,1.4,4.6,2.2c1.5,0.8,2.8,1.8,4,3s2.1,2.5,2.8,4.1s1,3.5,1,5.6
			c0,2.2-0.4,4.2-1.3,6.1c-0.9,1.9-2.1,3.5-3.7,5c-1.6,1.4-3.4,2.5-5.5,3.3C782.2,335.1,780,335.5,777.6,335.5z"/>
		<path class="st0" d="M827.6,280.7H861v4.8h-27.7v19.1h26.3v4.9h-26.3V330H861v4.8h-33.3v-54.1H827.6z"/>
		<path class="st0" d="M894.3,280.7h19.3c1.7,0,3.4,0.1,5.1,0.4c1.6,0.3,3.1,0.7,4.5,1.4c2.6,1.3,4.7,3.2,6.3,5.7s2.4,5.5,2.4,9
			c0,2.5-0.4,4.7-1.2,6.7s-1.8,3.7-3,5.2c-1.2,1.4-2.6,2.6-4.1,3.4s-3.1,1.3-4.6,1.4c2.3,3.5,4.5,7,6.8,10.5
			c2.2,3.5,4.4,6.9,6.7,10.4h-6.7c-2.2-3.4-4.3-6.8-6.5-10.2c-2.2-3.4-4.3-6.8-6.5-10.3h-12.7v20.5h-5.6v-54.1H894.3z M913.5,309.5
			c1.1,0,2.2,0,3.2-0.1s2-0.3,3.2-0.6c0.9-0.3,1.8-0.8,2.6-1.5s1.5-1.6,2-2.6c0.6-1,1-2.1,1.3-3.4s0.5-2.6,0.5-3.9
			c0-2.5-0.5-4.7-1.4-6.4c-1-1.7-2.3-3.1-3.9-4c-1-0.5-2.1-0.9-3.3-1.1s-2.5-0.3-3.9-0.3h-13.7v24h13.4V309.5z"/>
		<path class="st0" d="M960.4,280.7h6.2l18.3,42.8l18-42.8h6.1l-24.2,56.7L960.4,280.7z"/>
		<path class="st0" d="M1040.1,280.7h5.6v54.1h-5.6V280.7z"/>
		<path class="st0" d="M1106.6,335.7c-4.1,0-7.8-0.7-11.2-2.2c-3.4-1.5-6.4-3.5-8.9-6s-4.4-5.5-5.8-8.9s-2.1-7-2.1-10.8
			s0.7-7.4,2.2-10.8c1.4-3.4,3.4-6.3,5.9-8.9c2.5-2.5,5.5-4.5,8.9-6s7.1-2.2,11-2.2s7.5,0.7,10.8,2.1s6.2,3.3,8.7,5.6l-3.4,3.9
			c-2.1-1.9-4.4-3.5-7.1-4.8s-5.7-2-9-2s-6.3,0.6-9.1,1.9c-2.7,1.3-5.1,2.9-7,5c-2,2.1-3.5,4.6-4.6,7.4s-1.6,5.7-1.6,8.8
			c0,3.1,0.6,6.1,1.7,8.8c1.1,2.8,2.7,5.2,4.6,7.3c2,2.1,4.3,3.8,7.1,5c2.7,1.2,5.7,1.8,9,1.8c3.4,0,6.4-0.6,9-1.8
			c2.6-1.2,5-2.7,7-4.5l3.2,3.8c-2.6,2.4-5.5,4.2-8.7,5.5C1113.9,335,1110.4,335.7,1106.6,335.7z"/>
		<path class="st0" d="M1158.7,280.7h33.3v4.8h-27.7v19.1h26.3v4.9h-26.3V330h27.7v4.8h-33.3V280.7z"/>
		<path class="st0" d="M1240.7,335.5c-3.5,0-6.8-0.7-9.8-2s-5.7-3.4-8-6.2l4.1-3.4c1.6,2.1,3.6,3.7,6,5s5.1,1.9,7.9,1.9
			c1.7,0,3.3-0.3,4.7-0.9c1.4-0.6,2.6-1.3,3.6-2.3s1.8-2.1,2.3-3.4s0.8-2.7,0.8-4.2c0-1.4-0.2-2.6-0.7-3.6s-1.2-1.9-2-2.7
			c-0.8-0.8-1.8-1.5-2.9-2c-1.1-0.6-2.3-1.1-3.5-1.6l-6.4-2.5c-1.5-0.6-2.9-1.3-4.3-2c-1.4-0.8-2.6-1.7-3.6-2.8
			c-1-1.1-1.9-2.4-2.5-3.9s-0.9-3.2-0.9-5.2s0.4-3.8,1.2-5.5c0.8-1.7,1.9-3.2,3.3-4.4c1.4-1.2,3.1-2.2,5-2.9c1.9-0.7,4-1.1,6.2-1.1
			c3.2,0,5.9,0.5,8,1.4s4.2,2.2,6,3.8l-3.4,3.9c-1.4-1.4-3-2.4-4.7-3.2c-1.7-0.7-3.7-1.1-6-1.1c-1.4,0-2.8,0.2-4,0.7
			c-1.2,0.4-2.3,1.1-3.2,1.9c-0.9,0.8-1.6,1.8-2.2,2.9c-0.5,1.1-0.8,2.3-0.8,3.5s0.2,2.3,0.7,3.2c0.4,0.9,1,1.7,1.8,2.4
			c0.7,0.7,1.6,1.3,2.6,1.9c1,0.5,2.1,1,3.2,1.5l6.2,2.5c1.6,0.6,3.1,1.4,4.6,2.2c1.5,0.8,2.8,1.8,4,3s2.1,2.5,2.8,4.1
			c0.7,1.6,1,3.5,1,5.6c0,2.2-0.4,4.2-1.3,6.1s-2.1,3.5-3.7,5c-1.6,1.4-3.4,2.5-5.5,3.3C1245.3,335.1,1243.1,335.5,1240.7,335.5z"/>
	</g>
</g>
</svg>
