<svg id="Layer_1" data-name="Layer 1" xmlns="http://www.w3.org/2000/svg" viewBox="0 0 50 50"><title>Vector Smart Object2</title><path d="M12.44,42.85a6.5,6.5,0,0,1,4.19-6.05.71.71,0,0,0,.47-.67V13.87a.71.71,0,0,0-.47-.67,6.48,6.48,0,0,1-4-7.62l-.42-.29a.72.72,0,0,1-.31-.59V2a6.46,6.46,0,0,0,1.65,11.2.71.71,0,0,1,.47.67V36.13a.71.71,0,0,1-.47.67A6.46,6.46,0,0,0,11.9,48V45.16a.7.7,0,0,1,.32-.59l.38-.26a6.47,6.47,0,0,1-.16-1.46Zm0,0" fill="#bb141a" opacity="0.1"/><path d="M39,16.6l-3.47-4.05a.71.71,0,0,0-1-.11l-2.82,2a15.38,15.38,0,0,0-4-2.05l-.1-3.49a.72.72,0,0,0-.66-.7L23,8a.72.72,0,0,0-.1,1.43l3.24.23L26.27,13a.71.71,0,0,0,.51.67,13.93,13.93,0,0,1,4.51,2.29.72.72,0,0,0,.85,0L34.85,14,37.47,17l-2.3,2.42a.73.73,0,0,0-.11.85,13.56,13.56,0,0,1,1.63,4.78.73.73,0,0,0,.6.6l3.3.55-.28,4.07L37,30.4a.71.71,0,0,0-.66.52,14.13,14.13,0,0,1-2.29,4.51.72.72,0,0,0,0,.85L36,39l-3.06,2.66-2.42-2.3a.71.71,0,0,0-.85-.1,13.64,13.64,0,0,1-4.77,1.63.71.71,0,0,0-.61.59l-.55,3.31-1.15-.08a.72.72,0,0,0-.1,1.43l1.8.12h.05a.73.73,0,0,0,.71-.6l.57-3.44a15.35,15.35,0,0,0,4.29-1.47l2.51,2.39a.72.72,0,0,0,1,0l4.05-3.52a.71.71,0,0,0,.11-1l-2-2.83a15.69,15.69,0,0,0,2.05-4L41,31.73a.71.71,0,0,0,.69-.67l.38-5.37a.71.71,0,0,0-.6-.75L38,24.36a15.12,15.12,0,0,0-1.46-4.29L39,17.56a.72.72,0,0,0,0-1Zm0,0" fill="#636466"/><path d="M18,17.76a.72.72,0,0,0,.95.36,9.75,9.75,0,1,1,1.39,18.35.71.71,0,0,0-.88.88.71.71,0,0,0,.51.51,11.83,11.83,0,0,0,2.13.35l.8,0A11.19,11.19,0,1,0,18.4,16.81a.73.73,0,0,0-.37,1Zm0,0" fill="#bb141a"/><path d="M18.3,45.67v3.61a.72.72,0,0,0,.34.61.73.73,0,0,0,.7,0,7.9,7.9,0,0,0-.28-14.28V14.35A7.9,7.9,0,0,0,19.34.08a.73.73,0,0,0-.7,0,.72.72,0,0,0-.34.61V4.45L15.85,6.09,13.34,4.33V.72A.72.72,0,0,0,13,.11a.73.73,0,0,0-.7,0,7.9,7.9,0,0,0,.28,14.28v21.3a7.9,7.9,0,0,0-.29,14.27.73.73,0,0,0,.7,0,.72.72,0,0,0,.34-.61V45.55l2.45-1.64Zm-6.08-1.1a.7.7,0,0,0-.32.59V48A6.46,6.46,0,0,1,13.56,36.8a.71.71,0,0,0,.47-.67V13.87a.71.71,0,0,0-.47-.67A6.46,6.46,0,0,1,11.91,2V4.7a.72.72,0,0,0,.31.59l3.22,2.25a.71.71,0,0,0,.81,0l3.18-2.12a.7.7,0,0,0,.32-.59V2A6.46,6.46,0,0,1,18.08,13.2a.71.71,0,0,0-.47.67V36.13a.71.71,0,0,0,.47.67A6.46,6.46,0,0,1,19.73,48V45.3a.72.72,0,0,0-.31-.59l-3.22-2.25a.71.71,0,0,0-.81,0Zm0,0" fill="#636466"/></svg>