<svg id="Layer_1" data-name="Layer 1" xmlns="http://www.w3.org/2000/svg" viewBox="0 0 50 50"><title>Vector Smart Object</title><path d="M22.07,30.75a.94.94,0,0,1-.71-.33l-4.94-5.78a.94.94,0,1,1,1.42-1.22l4.35,5.09L33,19.73a.94.94,0,0,1,1.32.13,1,1,0,0,1-.14,1.32L22.66,30.54a.89.89,0,0,1-.59.21Zm0,0" fill="#bb141a"/><path d="M21.77,48.82l2.53,1.1a.89.89,0,0,0,.75,0l2.85-1.23A27,27,0,0,0,44.47,23.77V11a.94.94,0,0,0-.5-.83L25.18.11a.91.91,0,0,0-.89,0L6,10.13a.94.94,0,0,0-.49.82V24A27.08,27.08,0,0,0,21.77,48.82ZM7.4,11.5,24.75,2,42.6,11.51V23.77A25.19,25.19,0,0,1,27.17,47h0l-2.48,1.08-2.17-.95A25.2,25.2,0,0,1,7.4,24Zm0,0" fill="#636466"/><path d="M31.18,41.62h0L28.69,42.7l-2.17-.94A25.22,25.22,0,0,1,11.41,18.68V9.31l-4,2.19V24A25.2,25.2,0,0,0,22.51,47.1l2.17.94L27.16,47h0A25.27,25.27,0,0,0,39.4,36a25.38,25.38,0,0,1-8.22,5.58Zm0,0" fill="#bb141a" opacity="0.1"/></svg>